<svg width="24" height="24" viewBox="0 0 24 24" fill="none" xmlns="http://www.w3.org/2000/svg">
<path d="M11.903 3.03801C11.4101 3.03801 11.0101 2.62971 11.0101 2.12662V1.21523C11.0101 0.712137 11.4101 0.303833 11.903 0.303833C12.396 0.303833 12.796 0.712137 12.796 1.21523V2.12662C12.796 2.62971 12.396 3.03801 11.903 3.03801Z" fill="#595959"/>
<path d="M19.6961 10.9922C19.2032 10.9922 18.8031 10.5839 18.8031 10.0808C18.8031 6.37692 15.8563 3.22077 12.2345 3.04578C8.6081 2.8749 5.37511 5.72528 5.03354 9.40776C5.01301 9.62786 5.00274 9.85388 5.00274 10.0808C5.00274 10.5839 4.60269 10.9922 4.10977 10.9922C3.61685 10.9922 3.2168 10.5839 3.2168 10.0808C3.2168 9.79647 3.22974 9.51211 3.25564 9.23596C3.68561 4.5988 7.75621 1.00609 12.3188 1.22528C16.8792 1.44538 20.5891 5.41814 20.5891 10.0808C20.5891 10.5844 20.189 10.9922 19.6961 10.9922Z" fill="#595959"/>
<path d="M21.37 17.2083C21.1499 17.2083 20.9289 17.1254 20.7561 16.9591C19.5149 15.7597 18.8027 14.0709 18.8027 12.326C18.8027 11.8229 19.2028 11.4146 19.6957 11.4146C20.1886 11.4146 20.5887 11.8229 20.5887 12.326C20.5887 13.5723 21.0972 14.779 21.9839 15.6353C22.342 15.9811 22.3576 16.5581 22.0188 16.924C21.8433 17.1126 21.6067 17.2083 21.37 17.2083Z" fill="#595959"/>
<path d="M2.43551 17.2083C2.19843 17.2083 1.96224 17.1131 1.78677 16.9235C1.44789 16.5581 1.46352 15.9811 1.8216 15.6353C2.70832 14.779 3.21686 13.5728 3.21686 12.326C3.21686 11.8229 3.61691 11.4146 4.10983 11.4146C4.60275 11.4146 5.0028 11.8229 5.0028 12.326C5.0028 14.0718 4.29066 15.7606 3.04943 16.9591C2.87619 17.1254 2.65563 17.2083 2.43551 17.2083Z" fill="#595959"/>
<path d="M11.9033 24C9.48338 24 7.43848 21.9129 7.43848 19.4431C7.43848 18.94 7.83853 18.5317 8.33145 18.5317C8.82436 18.5317 9.22441 18.94 9.22441 19.4431C9.22441 20.925 10.4514 22.1772 11.9033 22.1772C13.3553 22.1772 14.5822 20.925 14.5822 19.4431C14.5822 18.94 14.9823 18.5317 15.4752 18.5317C15.9681 18.5317 16.3682 18.94 16.3682 19.4431C16.3682 21.9129 14.3233 24 11.9033 24Z" fill="#595959"/>
<path d="M3.66286 20.3545C2.57478 20.3545 1.6068 19.6755 1.19648 18.6246C0.785716 17.5724 1.03084 16.399 1.82111 15.6353C2.17919 15.289 2.744 15.3049 3.08377 15.6704C3.42265 16.0358 3.40747 16.6127 3.04939 16.9591C2.65827 17.3373 2.80204 17.8135 2.85562 17.9502C2.90875 18.086 3.1244 18.5317 3.66286 18.5317C4.15578 18.5317 4.55583 18.94 4.55583 19.4431C4.55583 19.9462 4.15623 20.3545 3.66286 20.3545Z" fill="#595959"/>
<path d="M20.1425 20.3544C19.6496 20.3544 19.2495 19.9461 19.2495 19.443C19.2495 18.9399 19.6496 18.5316 20.1425 18.5316C20.6814 18.5316 20.8975 18.0842 20.9511 17.947C21.0042 17.8107 21.1475 17.3364 20.7564 16.9586C20.3983 16.6123 20.3827 16.0358 20.7216 15.6699C21.0609 15.3044 21.6257 15.2885 21.9842 15.6343C22.7745 16.3981 23.0201 17.5706 22.6102 18.621C22.1994 19.6741 21.2306 20.3544 20.1425 20.3544Z" fill="#595959"/>
<path d="M4.10928 13.2369C3.61636 13.2369 3.21631 12.8286 3.21631 12.3255V10.0808C3.21631 9.57768 3.61636 9.16937 4.10928 9.16937C4.6022 9.16937 5.00226 9.57768 5.00226 10.0808V12.3255C5.00226 12.8286 4.60265 13.2369 4.10928 13.2369Z" fill="#595959"/>
<path d="M19.6962 13.2369C19.2033 13.2369 18.8032 12.8286 18.8032 12.3255V10.0808C18.8032 9.57768 19.2033 9.16937 19.6962 9.16937C20.1891 9.16937 20.5892 9.57768 20.5892 10.0808V12.3255C20.5892 12.8286 20.1891 13.2369 19.6962 13.2369Z" fill="#595959"/>
<path d="M20.1427 20.3545H3.66299C3.17007 20.3545 2.77002 19.9462 2.77002 19.4431C2.77002 18.94 3.17007 18.5317 3.66299 18.5317H20.1423C20.6352 18.5317 21.0353 18.94 21.0353 19.4431C21.0353 19.9462 20.6357 20.3545 20.1427 20.3545Z" fill="#595959"/>
</svg>
