<svg width="23" height="24" viewBox="0 0 23 24" fill="none" xmlns="http://www.w3.org/2000/svg">
<path d="M11.0156 12.8906C9.37781 12.8906 7.81828 12.112 6.62391 10.6988C5.5275 9.40125 4.89844 7.73109 4.89844 6.11719C4.89844 4.49481 5.54293 2.93888 6.69012 1.79168C7.83732 0.644488 9.39325 0 11.0156 0C12.638 0 14.1939 0.644488 15.3411 1.79168C16.4883 2.93888 17.1328 4.49481 17.1328 6.11719C17.1328 7.73109 16.5037 9.40125 15.4073 10.6988C14.213 12.112 12.6534 12.8906 11.0156 12.8906ZM11.0156 2.34375C10.0152 2.34487 9.05605 2.74278 8.34864 3.4502C7.64122 4.15761 7.2433 5.11675 7.24219 6.11719C7.24219 7.17047 7.68 8.3175 8.41406 9.18563C9.15562 10.0636 10.0795 10.545 11.0156 10.545C11.9517 10.545 12.8756 10.0617 13.6172 9.18563C14.3512 8.3175 14.7891 7.17 14.7891 6.11719C14.7879 5.11675 14.39 4.15761 13.6826 3.4502C12.9752 2.74278 12.0161 2.34487 11.0156 2.34375Z" fill="#BDBDBD"/>
<path d="M21.1875 24C20.8767 24 20.5786 23.8765 20.3589 23.6568C20.1391 23.437 20.0156 23.1389 20.0156 22.8281V20.1408C20.0156 17.8373 18.5831 16.4062 16.2773 16.4062H6.08203C3.77625 16.4062 2.34375 17.8373 2.34375 20.1408V22.8281C2.34375 23.1389 2.22028 23.437 2.00052 23.6568C1.78075 23.8765 1.48268 24 1.17188 24C0.861074 24 0.563003 23.8765 0.343234 23.6568C0.123465 23.437 0 23.1389 0 22.8281V20.1408C0 18.3722 0.584062 16.8539 1.6875 15.75C2.79094 14.6461 4.3125 14.0625 6.08016 14.0625H16.2755C18.0445 14.0625 19.5633 14.6461 20.6681 15.75C21.773 16.8539 22.3556 18.3722 22.3556 20.1408V22.8281C22.3556 23.1383 22.2327 23.4358 22.0137 23.6554C21.7948 23.8751 21.4977 23.999 21.1875 24Z" fill="#BDBDBD"/>
</svg>
